<svg width="59" height="59" viewBox="0 0 59 59" fill="none" xmlns="http://www.w3.org/2000/svg">
<path d="M29.5 3.6875C24.3948 3.6875 19.4042 5.20138 15.1594 8.03769C10.9145 10.874 7.60606 14.9054 5.65237 19.622C3.69868 24.3386 3.18751 29.5286 4.18349 34.5358C5.17947 39.5429 7.63787 44.1423 11.2478 47.7522C14.8578 51.3621 19.4571 53.8205 24.4642 54.8165C29.4714 55.8125 34.6614 55.3013 39.378 53.3476C44.0946 51.394 48.126 48.0855 50.9623 43.8407C53.7986 39.5958 55.3125 34.6052 55.3125 29.5C55.3125 22.6541 52.593 16.0886 47.7522 11.2478C42.9114 6.40702 36.3459 3.6875 29.5 3.6875ZM43.2304 31.1502L21.1054 42.2127C20.8243 42.3532 20.5118 42.4194 20.1978 42.4052C19.8839 42.391 19.5787 42.2967 19.3114 42.1314C19.0441 41.9661 18.8235 41.7351 18.6705 41.4605C18.5176 41.186 18.4374 40.8768 18.4375 40.5625V18.4375C18.4377 18.1233 18.5181 17.8144 18.6712 17.5401C18.8243 17.2658 19.0449 17.0351 19.3122 16.87C19.5794 16.7048 19.8845 16.6107 20.1983 16.5966C20.5121 16.5825 20.8244 16.6488 21.1054 16.7892L43.2304 27.8517C43.5363 28.005 43.7934 28.2403 43.9731 28.5314C44.1529 28.8225 44.248 29.1579 44.248 29.5C44.248 29.8421 44.1529 30.1775 43.9731 30.4686C43.7934 30.7597 43.5363 30.995 43.2304 31.1483" fill="white"/>
</svg>
