<svg width="164" height="49" viewBox="0 0 164 49" fill="none" xmlns="http://www.w3.org/2000/svg">
<path d="M163.428 42.1793L140.036 0.0535621H122.877L103.818 34.3775C103.637 34.7024 103.862 35.1095 104.224 35.1095H137.507L133.717 28.2828H114.784L126.641 6.92868L126.614 6.88028H126.668L126.641 6.92868L145.673 41.2043C145.853 41.5296 145.628 41.9362 145.267 41.9362H16.8841V0.000854492H0.000976562V44.3742C0.000976562 46.7983 1.89056 48.763 4.2219 48.763H159.773C163.023 48.763 165.054 45.1057 163.429 42.1799L163.428 42.1793Z" fill="#015191"/>
<path d="M42.2084 -0.00012207H25.3252V35.1091H42.2084V-0.00012207Z" fill="#015191"/>
<path d="M54.8703 35.1089H97.078C99.4093 35.1089 101.299 33.1442 101.299 30.7207V18.0418C101.299 15.6178 99.4093 13.6531 97.078 13.6531H75.9744V20.4798H84.4162V28.2811H67.5331V6.8264H101.299V-0.000316659V-0.000854492H54.8703C52.539 -0.000854492 50.6499 1.96439 50.6499 4.3884V30.7202C50.6499 33.1437 52.5395 35.1084 54.8703 35.1084V35.1089Z" fill="#015191"/>
<path d="M163.932 34.5787V0.0524902H144.761L163.932 34.5787Z" fill="#F39314"/>
<path d="M163.428 42.1793L140.036 0.0535621H122.877L103.818 34.3775C103.637 34.7024 103.862 35.1095 104.224 35.1095H137.507L133.717 28.2828H114.784L126.641 6.92868L126.614 6.88028H126.668L126.641 6.92868L145.673 41.2043C145.853 41.5296 145.628 41.9362 145.267 41.9362H16.8841V0.000854492H0.000976562V44.3742C0.000976562 46.7983 1.89056 48.763 4.2219 48.763H159.773C163.023 48.763 165.054 45.1057 163.429 42.1799L163.428 42.1793Z" fill="#015191"/>
<path d="M42.2084 -0.00012207H25.3252V35.1091H42.2084V-0.00012207Z" fill="#015191"/>
<path d="M54.8703 35.1089H97.078C99.4093 35.1089 101.299 33.1442 101.299 30.7207V18.0418C101.299 15.6178 99.4093 13.6531 97.078 13.6531H75.9744V20.4798H84.4162V28.2811H67.5331V6.8264H101.299V-0.000316659V-0.000854492H54.8703C52.539 -0.000854492 50.6499 1.96439 50.6499 4.3884V30.7202C50.6499 33.1437 52.5395 35.1084 54.8703 35.1084V35.1089Z" fill="#015191"/>
<path d="M163.932 34.5787V0.0524902H144.761L163.932 34.5787Z" fill="#F39314"/>
<path d="M163.428 42.1793L140.036 0.0535621H122.877L103.818 34.3775C103.637 34.7024 103.862 35.1095 104.224 35.1095H137.507L133.717 28.2828H114.784L126.641 6.92868L126.614 6.88028H126.668L126.641 6.92868L145.673 41.2043C145.853 41.5296 145.628 41.9362 145.267 41.9362H16.8841V0.000854492H0.000976562V44.3742C0.000976562 46.7983 1.89056 48.763 4.2219 48.763H159.773C163.023 48.763 165.054 45.1057 163.429 42.1799L163.428 42.1793Z" fill="#015191"/>
<path d="M42.2084 -0.00012207H25.3252V35.1091H42.2084V-0.00012207Z" fill="#015191"/>
<path d="M54.8703 35.1089H97.078C99.4093 35.1089 101.299 33.1442 101.299 30.7207V18.0418C101.299 15.6178 99.4093 13.6531 97.078 13.6531H75.9744V20.4798H84.4162V28.2811H67.5331V6.8264H101.299V-0.000316659V-0.000854492H54.8703C52.539 -0.000854492 50.6499 1.96439 50.6499 4.3884V30.7202C50.6499 33.1437 52.5395 35.1084 54.8703 35.1084V35.1089Z" fill="#015191"/>
<path d="M163.932 34.5787V0.0524902H144.761L163.932 34.5787Z" fill="#F39314"/>
<path d="M163.428 42.1793L140.036 0.0535621H122.877L103.818 34.3775C103.637 34.7024 103.862 35.1095 104.224 35.1095H137.507L133.717 28.2828H114.784L126.641 6.92868L126.614 6.88028H126.668L126.641 6.92868L145.673 41.2043C145.853 41.5296 145.628 41.9362 145.267 41.9362H16.8841V0.000854492H0.000976562V44.3742C0.000976562 46.7983 1.89056 48.763 4.2219 48.763H159.773C163.023 48.763 165.054 45.1057 163.429 42.1799L163.428 42.1793Z" fill="#015191"/>
<path d="M42.2084 -0.00012207H25.3252V35.1091H42.2084V-0.00012207Z" fill="#015191"/>
<path d="M54.8703 35.1089H97.078C99.4093 35.1089 101.299 33.1442 101.299 30.7207V18.0418C101.299 15.6178 99.4093 13.6531 97.078 13.6531H75.9744V20.4798H84.4162V28.2811H67.5331V6.8264H101.299V-0.000316659V-0.000854492H54.8703C52.539 -0.000854492 50.6499 1.96439 50.6499 4.3884V30.7202C50.6499 33.1437 52.5395 35.1084 54.8703 35.1084V35.1089Z" fill="#015191"/>
<path d="M163.932 34.5787V0.0524902H144.761L163.932 34.5787Z" fill="#F39314"/>
</svg>
