<svg width="205" height="42" viewBox="0 0 205 42" fill="none" xmlns="http://www.w3.org/2000/svg">
<path d="M115.612 27.8942L113.278 19.9618H114.726L116.326 25.5485L118.055 19.9618H119.309L121.071 25.5372L122.682 19.9618H124.098L121.774 27.8942H120.487L118.682 22.1489L116.899 27.8942H115.612Z" fill="#263F84"/>
<path d="M128.751 28.0529C126.427 28.0529 124.741 26.2738 124.741 23.928C124.741 21.5823 126.427 19.8032 128.751 19.8032C131.053 19.8032 132.75 21.5823 132.75 23.928C132.75 26.2738 131.053 28.0529 128.751 28.0529ZM126.124 23.928C126.124 25.5258 127.248 26.7044 128.751 26.7044C130.232 26.7044 131.356 25.5258 131.356 23.928C131.356 22.3302 130.232 21.1517 128.751 21.1517C127.248 21.1517 126.124 22.3302 126.124 23.928Z" fill="#263F84"/>
<path d="M137.956 28.0529C135.632 28.0529 133.945 26.2738 133.945 23.928C133.945 21.5823 135.632 19.8032 137.956 19.8032C140.258 19.8032 141.955 21.5823 141.955 23.928C141.955 26.2738 140.258 28.0529 137.956 28.0529ZM135.329 23.928C135.329 25.5258 136.453 26.7044 137.956 26.7044C139.437 26.7044 140.561 25.5258 140.561 23.928C140.561 22.3302 139.437 21.1517 137.956 21.1517C136.453 21.1517 135.329 22.3302 135.329 23.928Z" fill="#263F84"/>
<path d="M143.518 27.8942V19.9618H146.253C148.512 19.9618 150.09 21.6276 150.09 23.928C150.09 26.2284 148.512 27.8942 146.253 27.8942H143.518ZM144.88 26.5684H146.209C147.723 26.5684 148.706 25.5372 148.706 23.928C148.706 22.3189 147.723 21.2877 146.209 21.2877H144.88V26.5684Z" fill="#263F84"/>
<path d="M153.055 27.8942L150.72 19.9618H152.168L153.768 25.5485L155.498 19.9618H156.752L158.514 25.5372L160.124 19.9618H161.54L159.216 27.8942H157.93L156.125 22.1489L154.341 27.8942H153.055Z" fill="#263F84"/>
<path d="M166.193 28.0529C163.869 28.0529 162.183 26.2738 162.183 23.928C162.183 21.5823 163.869 19.8032 166.193 19.8032C168.496 19.8032 170.193 21.5823 170.193 23.928C170.193 26.2738 168.496 28.0529 166.193 28.0529ZM163.567 23.928C163.567 25.5258 164.691 26.7044 166.193 26.7044C167.674 26.7044 168.798 25.5258 168.798 23.928C168.798 22.3302 167.674 21.1517 166.193 21.1517C164.691 21.1517 163.567 22.3302 163.567 23.928Z" fill="#263F84"/>
<path d="M171.755 27.8942V19.9618H174.739C176.263 19.9618 177.322 21.061 177.322 22.5002C177.322 23.5201 176.749 24.404 175.809 24.7779L177.56 27.8942H176.025L174.458 25.0386H173.117V27.8942H171.755ZM173.117 23.724H174.631C175.441 23.724 175.917 23.2254 175.917 22.5002C175.917 21.7863 175.441 21.2877 174.631 21.2877H173.117V23.724Z" fill="#263F84"/>
<path d="M183.366 27.8942L181.128 24.4833H180.274V27.8942H178.912V19.9618H180.274V23.1461H181.161L183.182 19.9618H184.793L182.285 23.792L185.02 27.8942H183.366Z" fill="#263F84"/>
<path d="M186.112 27.8942V19.9618H187.474V27.8942H186.112Z" fill="#263F84"/>
<path d="M189.426 27.8942V19.9618H190.68L194.334 25.3219V19.9618H195.696V27.8942H194.442L190.788 22.5342V27.8942H189.426Z" fill="#263F84"/>
<path d="M201.163 28.0529C198.893 28.0529 197.271 26.3417 197.271 23.928C197.271 21.5256 198.914 19.8032 201.141 19.8032C203.119 19.8032 204.492 21.0497 204.849 22.6248H203.433C203.076 21.7636 202.341 21.1517 201.184 21.1517C199.693 21.1517 198.655 22.2282 198.655 23.928C198.655 25.6165 199.693 26.7044 201.206 26.7044C202.438 26.7044 203.26 26.0698 203.519 25.0499H200.979V23.8487H205C204.957 26.3644 203.422 28.0529 201.163 28.0529Z" fill="#263F84"/>
<path d="M113.613 41.8414L114.823 33.9089H116.207L118.412 39.1897L120.617 33.9089H122.022L123.222 41.8414H121.828L121.006 36.3113L118.79 41.5014H118.034L115.818 36.3227L114.996 41.8414H113.613Z" fill="#263F84"/>
<path d="M123.907 41.8414L126.944 33.9089H128.285L131.333 41.8414H129.852L129.225 40.2095H125.993L125.366 41.8414H123.907ZM126.425 38.9177H128.782L127.604 35.7447L126.425 38.9177Z" fill="#263F84"/>
<path d="M135.726 42C133.435 42 131.803 40.2889 131.803 37.8751C131.803 35.4841 133.446 33.7503 135.694 33.7503C137.575 33.7503 139.002 34.9515 139.369 36.7873H137.996C137.64 35.7221 136.786 35.0988 135.705 35.0988C134.245 35.0988 133.186 36.198 133.186 37.8751C133.186 39.541 134.245 40.6515 135.705 40.6515C136.851 40.6515 137.683 39.9942 138.018 38.8497H139.402C139.034 40.7535 137.618 42 135.726 42Z" fill="#263F84"/>
<path d="M145.569 41.8414V38.4304H142.294V41.8414H140.932V33.9089H142.294V37.0932H145.569V33.9089H146.942V41.8414H145.569Z" fill="#263F84"/>
<path d="M148.891 41.8414V33.9089H150.253V41.8414H148.891Z" fill="#263F84"/>
<path d="M152.205 41.8414V33.9089H153.459L157.113 39.269V33.9089H158.475V41.8414H157.221L153.567 36.4813V41.8414H152.205Z" fill="#263F84"/>
<path d="M160.418 41.8414V33.9089H164.861V35.2348H161.78V37.1612H164.58V38.4644H161.78V40.5155H164.98V41.8414H160.418Z" fill="#263F84"/>
<path d="M166.667 41.8414V33.9089H169.651C171.175 33.9089 172.234 35.0081 172.234 36.4473C172.234 37.4672 171.661 38.3511 170.721 38.725L172.472 41.8414H170.937L169.37 38.9857H168.029V41.8414H166.667ZM168.029 37.6712H169.543C170.353 37.6712 170.829 37.1726 170.829 36.4473C170.829 35.7334 170.353 35.2348 169.543 35.2348H168.029V37.6712Z" fill="#263F84"/>
<path d="M175.411 41.8414V38.6571L172.698 33.9089H174.233L176.092 37.2405L177.952 33.9089H179.497L176.773 38.6684V41.8414H175.411Z" fill="#263F84"/>
<path fill-rule="evenodd" clip-rule="evenodd" d="M0 41.7906L11.8466 41.8156C12.073 41.7343 12.4121 39.0326 12.4996 38.5152C12.8697 36.3243 13.8467 29.868 14.2293 28.2227L20.2381 41.7984L34.7371 41.8079L32.8411 37.5437C32.2293 36.0871 31.565 34.6973 30.9448 33.2583L28.1233 26.8337C27.425 25.2586 27.2277 25.3086 27.6093 24.7375C29.2355 22.3038 30.8165 19.8314 32.4806 17.3748C33.3135 16.1454 34.1417 14.9218 34.9331 13.6747C35.3462 13.0239 35.7406 12.4539 36.1447 11.8478L37.3695 9.97768L24.1735 9.94336C23.8256 10.5208 23.3925 11.1213 23.013 11.7184C22.6186 12.3387 22.2686 12.8573 21.8632 13.4555L17.2621 20.4012C16.8751 20.9791 16.5018 21.565 16.1089 22.1336C15.7195 22.6974 15.3679 23.2893 14.95 23.827L17.2431 9.94299L5.29873 9.94234L0 41.7906Z" fill="#263F84"/>
<path fill-rule="evenodd" clip-rule="evenodd" d="M81.0392 41.8134L93.1441 41.8153L96.7493 20.3756L104.681 20.3668L106.431 10.1623V9.94464L78.0726 9.94317L76.3256 20.3671H84.5864C84.5607 21.0165 81.7696 37.2118 81.4422 39.149C81.334 39.7885 81.0111 41.2564 81.0392 41.8134Z" fill="#263F84"/>
<path fill-rule="evenodd" clip-rule="evenodd" d="M37.4681 9.88729C37.8083 10.0283 39.3295 9.99014 40.4051 9.96316C40.7892 9.95353 41.1165 9.94533 41.3129 9.94721C41.1751 11.2421 40.9087 12.6907 40.6509 14.0923C40.5255 14.7743 40.4021 15.4453 40.2966 16.0819L38.2465 28.3686C38.1916 28.6981 38.1317 29.0296 38.0715 29.3627C37.7497 31.1436 37.4193 32.972 37.7863 34.8057C38.4983 38.3624 41.2714 41.2434 44.8995 41.7444C46.0243 41.8997 57.4447 41.8266 58.6608 41.807C64.0027 41.5074 68.6253 38.6802 71.3438 33.9872C72.9604 31.1963 73.3317 28.8236 73.8026 25.8155C73.8839 25.2957 73.9683 24.7566 74.0625 24.1935C74.1063 23.932 74.1505 23.6761 74.194 23.4249C74.599 21.0829 74.9345 19.1423 74.1676 16.6961C73.8198 15.5872 73.3437 14.723 72.7761 13.894C70.8569 11.0906 68.0992 9.94253 64.5406 9.94299C63.6843 9.94308 62.8275 9.94486 61.9705 9.94664H61.9697C60.1498 9.95042 58.3291 9.95421 56.511 9.9418C56.4198 9.77603 56.3311 9.66959 56.2333 9.55231C56.1709 9.47748 56.1048 9.39819 56.0321 9.29629L48.6703 0C48.486 0.0852428 46.9395 1.47197 45.7522 2.53653C45.1539 3.07298 44.6469 3.52763 44.4514 3.69269L40.254 7.41411C39.9434 7.69031 39.6432 7.96098 39.3462 8.22879C38.7283 8.78591 38.1241 9.33076 37.4681 9.88729ZM41.5162 9.26388L43.9164 9.27021C43.8811 9.92827 42.1018 20.3474 41.6408 23.0469L41.5439 23.6149C41.2825 25.1538 41.0274 26.6931 40.772 28.2343L40.7717 28.236C40.6294 29.095 40.4869 29.9545 40.3432 30.815C39.8366 33.8494 40.0621 35.4437 41.5421 37.4368C42.0188 38.0788 43.0805 38.8835 43.8349 39.2047C45.0266 39.712 46.0168 39.7846 47.417 39.7136C51.9784 39.482 55.4286 37.4012 58.258 34.2149C59.2528 33.0947 60.9389 30.379 61.2379 28.8937C61.1849 28.9487 61.0733 29.1234 60.9155 29.3703C60.5488 29.9442 59.9329 30.9081 59.2248 31.6648C56.7679 34.2906 52.7058 36.0065 49.035 35.427C47.4677 35.1795 46.2314 33.5953 46.5197 31.6048C46.8981 28.9922 47.3609 26.3291 47.8199 23.6873C48.0092 22.5982 48.1978 21.5127 48.3796 20.4358C48.4124 20.2416 48.5073 19.6589 48.6383 18.8547C49.1278 15.849 50.121 9.7506 50.2577 9.28646L52.6984 9.26351C52.5752 8.98629 52.1785 8.51464 51.8605 8.13641C51.7517 8.00705 51.6521 7.88862 51.5757 7.79264C51.5018 7.69962 51.3593 7.51742 51.1722 7.27806C50.2475 6.09551 48.2326 3.51851 47.9969 3.40801L41.946 8.81339C41.9091 8.84732 41.8815 8.87238 41.8567 8.89491C41.8222 8.92617 41.7931 8.95258 41.752 8.99114C41.7344 9.00757 41.7213 9.01922 41.7101 9.02927C41.6844 9.05211 41.6681 9.06667 41.6299 9.11026C41.5906 9.15521 41.5778 9.16556 41.5717 9.17053C41.5702 9.17176 41.5691 9.17266 41.5681 9.17367C41.5653 9.17647 41.5633 9.18012 41.5557 9.19388C41.5488 9.20645 41.5372 9.22743 41.5162 9.26388ZM49.8214 25.8916C49.375 21.9906 52.0899 19.0585 55.2555 18.6308C58.8399 18.1467 61.694 20.9896 62.0966 24.2529C62.573 28.1137 59.8705 31.2104 56.7444 31.6038C53.0723 32.0657 50.2056 29.2493 49.8214 25.8916Z" fill="#263F84"/>
</svg>
