<svg width="46" height="47" viewBox="0 0 46 47" fill="none" xmlns="http://www.w3.org/2000/svg">
<path d="M17.1638 16.783H28.8363C28.9335 16.7817 29.0301 16.8003 29.1202 16.8377C29.2103 16.8752 29.2921 16.9306 29.3609 17.0009C29.4297 17.0712 29.484 17.1548 29.5206 17.2469C29.5573 17.339 29.5755 17.4376 29.5742 17.537V29.4632C29.5755 29.5626 29.5573 29.6612 29.5206 29.7533C29.484 29.8454 29.4297 29.929 29.3609 29.9993C29.2921 30.0696 29.2103 30.1251 29.1202 30.1625C29.0301 30.1999 28.9335 30.2185 28.8363 30.2172H17.1638C17.0665 30.2185 16.97 30.1999 16.8799 30.1625C16.7897 30.1251 16.7079 30.0696 16.6391 29.9993C16.5703 29.929 16.516 29.8454 16.4794 29.7533C16.4428 29.6612 16.4246 29.5626 16.4258 29.4632V17.537C16.4246 17.4376 16.4428 17.339 16.4794 17.2469C16.516 17.1548 16.5703 17.0712 16.6391 17.0009C16.7079 16.9306 16.7897 16.8752 16.8799 16.8377C16.97 16.8003 17.0665 16.7817 17.1638 16.783Z" stroke="#F39200" stroke-linecap="round" stroke-linejoin="round"/>
<path d="M23.0002 44.5522C34.3795 44.5522 43.6043 35.1268 43.6043 23.5001C43.6043 11.8733 34.3795 2.448 23.0002 2.448C11.6208 2.448 2.396 11.8733 2.396 23.5001C2.396 35.1268 11.6208 44.5522 23.0002 44.5522Z" stroke="#F39200" stroke-linecap="round" stroke-linejoin="round"/>
<path d="M24.888 12.9838V2.53613M21.1122 12.9838V2.53613M17.3363 12.9838V3.25092M28.6638 12.9838V3.25092M21.1122 34.1045V44.5522M24.888 34.1045V44.5522M28.6638 34.1045V43.8374M17.3363 34.1045V43.8374M33.3309 25.478H43.5564M33.3309 21.6201H43.5564M33.3309 17.7622H42.8568M33.3309 29.3261H42.8568M12.6693 21.6201H2.44385M12.6693 25.478H2.44385M12.6693 29.3261H3.14343M12.6693 17.7622H3.14343" stroke="#F39200" stroke-linecap="round" stroke-linejoin="round"/>
</svg>
