<svg width="48" height="48" viewBox="0 0 48 48" fill="none" xmlns="http://www.w3.org/2000/svg">
<path d="M33.2502 44.3199C39.364 44.3199 44.3202 39.3637 44.3202 33.2499C44.3202 27.1361 39.364 22.1799 33.2502 22.1799C27.1364 22.1799 22.1802 27.1361 22.1802 33.2499C22.1802 39.3637 27.1364 44.3199 33.2502 44.3199Z" stroke="#F39200" stroke-linecap="round" stroke-linejoin="round"/>
<path d="M42.5 27.18V7.45C42.487 6.92828 42.2705 6.43233 41.8968 6.068C41.5232 5.70367 41.0219 5.49984 40.5 5.5H24V27.18" stroke="#F39200" stroke-linecap="round" stroke-linejoin="round"/>
<path d="M5.5 24H24V5.5H7.45C6.92828 5.51305 6.43233 5.72951 6.068 6.10317C5.70367 6.47684 5.49984 6.97812 5.5 7.5V24ZM5.5 24V40.55C5.5 41.0804 5.71071 41.5891 6.08579 41.9642C6.46086 42.3393 6.96957 42.55 7.5 42.55H27.18M36.33 12.09L30.17 18.24M30.17 12.09L36.33 18.24M14.37 37.6V28.9M18.72 33.25H10.01M37.6 32.11H28.9M37.6 34.92H28.9M18.7 15.15H10" stroke="#F39200" stroke-linecap="round" stroke-linejoin="round"/>
</svg>
