<svg width="48" height="48" viewBox="0 0 48 48" fill="none" xmlns="http://www.w3.org/2000/svg">
<path d="M40.5 5.5H7.5C6.4 5.5 5.5 6.4 5.5 7.5V40.5C5.5 41.6 6.4 42.5 7.5 42.5H40.5C41.6 42.5 42.5 41.6 42.5 40.5V7.5C42.5 6.4 41.6 5.5 40.5 5.5Z" stroke="#F39200" stroke-linecap="round" stroke-linejoin="round"/>
<path d="M9.626 27.9021C10.256 28.6571 11.01 29.0351 12.143 29.0351H13.653C15.038 29.0351 16.171 27.9021 16.171 26.5171C16.171 25.1321 15.038 24.0001 13.653 24.0001H12.017C10.633 24.0001 9.5 22.8671 9.5 21.4831C9.5 20.0991 10.633 18.9661 12.017 18.9661H13.527C14.66 18.9661 15.415 19.2171 16.045 20.0991M23.296 27.7761C22.919 28.5311 22.038 29.0351 21.156 29.0351C20.4889 29.033 19.8498 28.767 19.3782 28.2952C18.9066 27.8234 18.6408 27.1841 18.639 26.5171V24.8811C18.639 23.4971 19.772 22.3641 21.157 22.3641C22.542 22.3641 23.674 23.4971 23.674 24.8811V25.7621H18.639M26.143 18.9661V27.7761C26.143 28.5311 26.646 29.0341 27.401 29.0341H27.779M30.095 18.9661V27.7761C30.095 28.5311 30.598 29.0341 31.354 29.0341H31.731M38.5 26.5171C38.5 27.9021 37.367 29.0341 35.983 29.0341C34.599 29.0341 33.466 27.9021 33.466 26.5171V24.8811C33.466 23.4971 34.598 22.3641 35.983 22.3641C37.368 22.3641 38.5 23.4971 38.5 24.8801M38.5 29.0351V22.2381" stroke="#F39200" stroke-linecap="round" stroke-linejoin="round"/>
</svg>
