<svg width="56" height="52" viewBox="0 0 56 52" fill="none" xmlns="http://www.w3.org/2000/svg">
<path d="M47.2784 21.6774L29.7653 6.32322C29.28 5.91351 28.6472 5.68734 27.9913 5.68922C27.3354 5.6911 26.7041 5.9209 26.2216 6.33337L8.73469 21.6673C8.46422 21.8955 8.24805 22.1736 8.10002 22.4839C7.95198 22.7941 7.87534 23.1297 7.875 23.469V42.2499C7.875 42.8964 8.15156 43.5164 8.64384 43.9735C9.13613 44.4306 9.80381 44.6874 10.5 44.6874H21C21.6962 44.6874 22.3639 44.4306 22.8562 43.9735C23.3484 43.5164 23.625 42.8964 23.625 42.2499V32.4999C23.625 32.2844 23.7172 32.0778 23.8813 31.9254C24.0454 31.773 24.2679 31.6874 24.5 31.6874H31.5C31.7321 31.6874 31.9546 31.773 32.1187 31.9254C32.2828 32.0778 32.375 32.2844 32.375 32.4999V42.2499C32.375 42.8964 32.6516 43.5164 33.1438 43.9735C33.6361 44.4306 34.3038 44.6874 35 44.6874H45.5C46.1962 44.6874 46.8639 44.4306 47.3562 43.9735C47.8484 43.5164 48.125 42.8964 48.125 42.2499V23.469C48.1248 23.1323 48.0495 22.7992 47.9038 22.4909C47.7581 22.1825 47.5452 21.9056 47.2784 21.6774ZM46.375 42.2499C46.375 42.4654 46.2828 42.6721 46.1187 42.8245C45.9546 42.9768 45.7321 43.0624 45.5 43.0624H35C34.7679 43.0624 34.5454 42.9768 34.3813 42.8245C34.2172 42.6721 34.125 42.4654 34.125 42.2499V32.4999C34.125 31.8535 33.8484 31.2335 33.3562 30.7764C32.8639 30.3192 32.1962 30.0624 31.5 30.0624H24.5C23.8038 30.0624 23.1361 30.3192 22.6438 30.7764C22.1516 31.2335 21.875 31.8535 21.875 32.4999V42.2499C21.875 42.4654 21.7828 42.6721 21.6187 42.8245C21.4546 42.9768 21.2321 43.0624 21 43.0624H10.5C10.2679 43.0624 10.0454 42.9768 9.88128 42.8245C9.71719 42.6721 9.625 42.4654 9.625 42.2499V23.469C9.62639 23.3538 9.65355 23.2402 9.70477 23.1353C9.75598 23.0304 9.83013 22.9365 9.9225 22.8596L27.4094 7.52572C27.5698 7.39267 27.7773 7.31912 27.9923 7.31912C28.2074 7.31912 28.4149 7.39267 28.5753 7.52572L46.0884 22.8779C46.1798 22.955 46.2525 23.0491 46.3019 23.1541C46.3513 23.2591 46.3762 23.3727 46.375 23.4873V42.2499Z" fill="#F39200"/>
</svg>
