<svg width="43" height="43" viewBox="0 0 43 43" fill="none" xmlns="http://www.w3.org/2000/svg">
<g clip-path="url(#clip0_7_155)">
<path d="M21.5196 2.61216e-06C21.0296 -0.00067147 20.5483 0.129129 20.1252 0.376064C19.702 0.622998 19.3522 0.97816 19.1117 1.40505C18.8713 1.83194 18.7488 2.31515 18.757 2.80504C18.7651 3.29492 18.9036 3.7738 19.1581 4.19245C19.4126 4.61111 19.774 4.95445 20.2052 5.18718C20.6363 5.41991 21.1216 5.53364 21.6113 5.51668C22.101 5.49972 22.5773 5.35268 22.9913 5.09067C23.4053 4.82867 23.7421 4.46114 23.967 4.02588C27.9463 6.29592 30.8595 13.8299 30.8595 22.5911C30.8595 26.3017 30.3417 29.8581 29.3814 32.9255C29.336 33.0713 29.3502 33.2293 29.4211 33.3647C29.492 33.5 29.6137 33.6017 29.7595 33.6475C29.9051 33.693 30.0628 33.679 30.1982 33.6085C30.3335 33.538 30.4354 33.4167 30.4815 33.2713C31.4777 30.0875 32.0134 26.4163 32.0134 22.5911C32.0134 13.287 28.8385 5.23704 24.2716 2.87742C24.2716 2.838 24.277 2.79859 24.277 2.75738C24.2765 2.02622 23.9858 1.32515 23.4688 0.808143C22.9518 0.291138 22.2507 0.000477235 21.5196 2.61216e-06ZM21.5196 1.15204C21.9453 1.15204 22.3537 1.32118 22.6547 1.62224C22.9558 1.92329 23.1249 2.33162 23.1249 2.75738C23.1249 3.18314 22.9558 3.59146 22.6547 3.89252C22.3537 4.19358 21.9453 4.36271 21.5196 4.36271C21.0938 4.36271 20.6855 4.19358 20.3844 3.89252C20.0834 3.59146 19.9142 3.18314 19.9142 2.75738C19.9142 2.33162 20.0834 1.92329 20.3844 1.62224C20.6855 1.32118 21.0938 1.15204 21.5196 1.15204ZM11.6905 8.86517C7.98712 8.8795 5.15628 10.0566 3.82866 12.3571C2.50641 14.6451 2.88445 17.6784 4.74241 20.9231C4.81844 21.0559 4.94411 21.1531 5.09178 21.1932C5.23946 21.2334 5.39703 21.2132 5.52985 21.1372C5.66266 21.0612 5.75983 20.9355 5.79998 20.7878C5.84013 20.6401 5.81998 20.4826 5.74395 20.3498C4.06874 17.4293 3.74266 14.8099 4.82662 12.9323C6.29578 10.3845 10.2607 9.42954 15.4548 10.3755C15.602 10.3956 15.7512 10.358 15.8715 10.2708C15.9917 10.1835 16.0736 10.0532 16.1002 9.90701C16.1267 9.76085 16.0959 9.61007 16.014 9.48608C15.9322 9.36209 15.8057 9.27446 15.6608 9.24142C14.3516 8.9951 13.0226 8.86916 11.6905 8.86517ZM31.492 8.89742C31.3445 8.9036 31.2051 8.96605 31.1022 9.07194C30.9994 9.17782 30.9411 9.31908 30.9393 9.46665C30.9374 9.61423 30.9922 9.75689 31.0924 9.8653C31.1925 9.97371 31.3304 10.0396 31.4777 10.0495C34.7636 10.0925 37.1322 11.1173 38.1964 12.9627C39.6656 15.5051 38.5189 19.402 35.1183 23.4207C35.02 23.5374 34.9719 23.6884 34.9847 23.8405C34.9974 23.9927 35.07 24.1335 35.1864 24.2323C35.3029 24.3309 35.4538 24.3792 35.6059 24.3668C35.758 24.3544 35.899 24.2822 35.998 24.166C39.6763 19.8194 40.9609 15.4478 39.1944 12.3858C37.8954 10.1337 35.1452 8.94579 31.492 8.89742ZM26.6581 9.42059C26.6189 9.42141 26.5799 9.42621 26.5416 9.43492C23.2145 10.148 19.6742 11.5401 16.2736 13.5038C8.08566 18.2302 2.66945 25.1407 3.08691 30.2953C2.55195 30.591 2.13051 31.0563 1.88891 31.6178C1.64732 32.1793 1.59928 32.8052 1.75236 33.3969C1.90543 33.9887 2.25094 34.5128 2.7345 34.8868C3.21806 35.2607 3.81222 35.4632 4.42349 35.4625C5.13759 35.4367 5.81385 35.1349 6.30994 34.6206C6.80602 34.1063 7.08324 33.4196 7.08324 32.7051C7.08324 31.9905 6.80602 31.3038 6.30994 30.7895C5.81385 30.2752 5.13759 29.9735 4.42349 29.9477C4.35541 29.9477 4.28912 29.9531 4.22103 29.9585C4.04187 25.3718 9.13737 18.954 16.8487 14.5018C20.149 12.5972 23.5782 11.2481 26.7835 10.5601C26.9216 10.5287 27.0434 10.4476 27.1256 10.3322C27.2078 10.2168 27.2447 10.0752 27.2292 9.93438C27.2137 9.79356 27.1469 9.66336 27.0416 9.56861C26.9363 9.47385 26.7997 9.42117 26.6581 9.42059ZM21.4999 20.5952C21.3649 20.5966 21.2305 20.6116 21.0985 20.64C20.5982 20.7479 20.1584 21.044 19.8702 21.4669C19.5819 21.8899 19.4671 22.4074 19.5496 22.9126C19.6321 23.4178 19.9055 23.8719 20.3133 24.1813C20.7211 24.4906 21.2321 24.6314 21.7408 24.5746C22.2495 24.5179 22.717 24.2678 23.0465 23.8762C23.3761 23.4846 23.5427 22.9813 23.5117 22.4704C23.4808 21.9595 23.2547 21.48 22.8803 21.131C22.5059 20.782 22.0117 20.5902 21.4999 20.5952ZM8.1197 23.9008C8.04391 23.8973 7.96817 23.9087 7.89683 23.9346C7.82549 23.9604 7.75997 24.0001 7.70403 24.0513C7.64808 24.1022 7.60271 24.1637 7.57052 24.2321C7.53834 24.3006 7.51998 24.3747 7.51648 24.4502C7.51299 24.5258 7.52443 24.6013 7.55016 24.6724C7.57588 24.7436 7.61539 24.8089 7.66641 24.8648C9.93824 27.3605 12.8909 29.7023 16.2557 31.6462C24.1659 36.215 32.5706 37.5318 36.9691 34.9429C37.4368 35.2809 37.9992 35.4627 38.5762 35.4625C39.1828 35.4632 39.7727 35.2641 40.2547 34.8959C40.7368 34.5277 41.084 34.0109 41.2428 33.4255C41.4015 32.84 41.3629 32.2186 41.133 31.6573C40.9031 31.096 40.4946 30.6262 39.9707 30.3204C39.4468 30.0146 38.8368 29.89 38.235 29.9658C37.6332 30.0415 37.0731 30.3135 36.6415 30.7396C36.2098 31.1658 35.9305 31.7222 35.8469 32.323C35.7633 32.9238 35.88 33.5354 36.179 34.0632C32.1567 36.2383 24.2985 34.959 16.8326 30.6483C13.5664 28.7634 10.7087 26.4952 8.51924 24.089C8.46839 24.0327 8.40689 23.9872 8.33831 23.9549C8.26973 23.9226 8.19543 23.9042 8.1197 23.9008ZM4.42349 31.098C4.84925 31.098 5.25758 31.2671 5.55863 31.5682C5.85969 31.8692 6.02882 32.2775 6.02882 32.7033C6.02882 33.1291 5.85969 33.5374 5.55863 33.8384C5.25758 34.1395 4.84925 34.3086 4.42349 34.3086C3.99773 34.3086 3.58941 34.1395 3.28835 33.8384C2.98729 33.5374 2.81816 33.1291 2.81816 32.7033C2.81816 32.2775 2.98729 31.8692 3.28835 31.5682C3.58941 31.2671 3.99773 31.098 4.42349 31.098ZM38.5762 31.098C39.002 31.098 39.4103 31.2671 39.7114 31.5682C40.0124 31.8692 40.1816 32.2775 40.1816 32.7033C40.1816 33.1291 40.0124 33.5374 39.7114 33.8384C39.4103 34.1395 39.002 34.3086 38.5762 34.3086C38.1895 34.309 37.8158 34.1689 37.5245 33.9145L37.5138 33.8948C37.4686 33.8284 37.41 33.7722 37.3418 33.7299C37.1467 33.4954 37.0225 33.2102 36.9837 32.9077C36.9448 32.6051 36.993 32.2978 37.1225 32.0216C37.2521 31.7454 37.4576 31.5119 37.715 31.3483C37.9725 31.1847 38.2712 31.0979 38.5762 31.098ZM13.4839 33.5508C13.3891 33.5458 13.2944 33.5644 13.2084 33.6048C13.1224 33.6452 13.0477 33.7062 12.991 33.7825C12.9343 33.8587 12.8973 33.9477 12.8832 34.0417C12.8692 34.1357 12.8786 34.2317 12.9106 34.3212C14.8331 39.6926 17.981 43 21.5178 43C24.0978 43 26.4879 41.2406 28.3494 38.1428C28.4278 38.0118 28.451 37.8551 28.4141 37.707C28.3771 37.5589 28.283 37.4315 28.1523 37.3527C28.0874 37.3136 28.0154 37.2877 27.9405 37.2765C27.8655 37.2652 27.7891 37.2688 27.7155 37.2871C27.642 37.3054 27.5728 37.3381 27.5118 37.3831C27.4509 37.4282 27.3995 37.4848 27.3604 37.5498C25.687 40.3322 23.6337 41.848 21.5196 41.848C18.5777 41.848 15.7719 38.8971 13.9946 33.9324C13.9563 33.8254 13.8872 33.732 13.796 33.6642C13.7049 33.5963 13.5975 33.5568 13.4839 33.5508Z" fill="#F39200"/>
</g>
<defs>
<clipPath id="clip0_7_155">
<rect width="43" height="43" fill="white"/>
</clipPath>
</defs>
</svg>
