<svg width="48" height="48" viewBox="0 0 48 48" fill="none" xmlns="http://www.w3.org/2000/svg">
<path d="M17.8101 18.83L23.9901 11.58M15.6301 7.15001C13.7154 7.14764 11.8392 7.68853 10.2196 8.70987C8.59992 9.73121 7.30327 11.1911 6.48021 12.9199C5.65714 14.6488 5.34144 16.5757 5.56977 18.4768C5.79811 20.3779 6.5611 22.1752 7.77013 23.66L24.0001 42.71L40.0701 23.85L40.1501 23.76L40.2301 23.66C41.1078 22.6016 41.7608 21.3755 42.1494 20.0565C42.5379 18.7375 42.6539 17.3533 42.4902 15.988C42.3265 14.6228 41.8866 13.3052 41.1973 12.1154C40.5079 10.9257 39.5836 9.88877 38.4806 9.06779C37.3775 8.24681 36.1189 7.65898 34.7814 7.34011C33.4439 7.02125 32.0554 6.97802 30.7006 7.21306C29.3459 7.4481 28.0531 7.95649 26.9012 8.70726C25.7492 9.45803 24.7622 10.4355 24.0001 11.58C23.0743 10.2152 21.8282 9.0978 20.3709 8.32557C18.9136 7.55334 17.2894 7.14974 15.6401 7.15001H15.6301Z" stroke="#F39200" stroke-linecap="round" stroke-linejoin="round"/>
</svg>
