<svg width="48" height="48" viewBox="0 0 48 48" fill="none" xmlns="http://www.w3.org/2000/svg">
<path d="M24 28C24 27.4067 23.8241 26.8267 23.4944 26.3333C23.1648 25.84 22.6962 25.4555 22.1481 25.2284C21.5999 25.0013 20.9967 24.9419 20.4147 25.0577C19.8328 25.1734 19.2982 25.4592 18.8787 25.8787C18.4591 26.2983 18.1734 26.8328 18.0576 27.4148C17.9419 27.9967 18.0013 28.5999 18.2284 29.1481C18.4554 29.6963 18.8399 30.1648 19.3333 30.4944C19.8266 30.8241 20.4067 31 21 31M24 28V31M24 28C24 27.4067 24.1759 26.8267 24.5056 26.3333C24.8352 25.84 25.3038 25.4555 25.8519 25.2284C26.4001 25.0013 27.0033 24.9419 27.5853 25.0577C28.1672 25.1734 28.7018 25.4592 29.1213 25.8787C29.5409 26.2983 29.8266 26.8328 29.9424 27.4148C30.0581 27.9967 29.9987 28.5999 29.7716 29.1481C29.5446 29.6963 29.1601 30.1648 28.6667 30.4944C28.1734 30.8241 27.5933 31 27 31M21 31H24M21 31C20.4067 31 19.8266 31.176 19.3333 31.5056C18.8399 31.8353 18.4554 32.3038 18.2284 32.852C18.0013 33.4002 17.9419 34.0034 18.0576 34.5853C18.1734 35.1672 18.4591 35.7018 18.8787 36.1214C19.2982 36.5409 19.8328 36.8266 20.4147 36.9424C20.9967 37.0581 21.5999 36.9987 22.1481 36.7717C22.6962 36.5446 23.1648 36.1601 23.4944 35.6667C23.8241 35.1734 24 34.5934 24 34M24 31H27M24 31V34M27 31C27.5933 31 28.1734 31.176 28.6667 31.5056C29.1601 31.8353 29.5446 32.3038 29.7716 32.852C29.9987 33.4002 30.0581 34.0034 29.9424 34.5853C29.8266 35.1672 29.5409 35.7018 29.1213 36.1214C28.7018 36.5409 28.1672 36.8266 27.5853 36.9424C27.0033 37.0581 26.4001 36.9987 25.8519 36.7717C25.3038 36.5446 24.8352 36.1601 24.5056 35.6667C24.1759 35.1734 24 34.5934 24 34M16 11.436C16 13.5578 16.8429 15.5926 18.3431 17.0929C19.8434 18.5932 21.8783 19.436 24 19.436C26.1217 19.436 28.1566 18.5932 29.6569 17.0929C31.1571 15.5926 32 13.5578 32 11.436" stroke="#F39200" stroke-linecap="round" stroke-linejoin="round"/>
<path d="M40.5 5.5H7.5C6.39543 5.5 5.5 6.39543 5.5 7.5V40.5C5.5 41.6046 6.39543 42.5 7.5 42.5H40.5C41.6046 42.5 42.5 41.6046 42.5 40.5V7.5C42.5 6.39543 41.6046 5.5 40.5 5.5Z" stroke="#F39200" stroke-linecap="round" stroke-linejoin="round"/>
</svg>
